<?xml version="1.0" encoding="UTF-8" standalone="no"?>
<!-- Created with Inkscape (http://www.inkscape.org/) -->

<svg
   xmlns:dc="http://purl.org/dc/elements/1.1/"
   xmlns:cc="http://creativecommons.org/ns#"
   xmlns:rdf="http://www.w3.org/1999/02/22-rdf-syntax-ns#"
   xmlns:svg="http://www.w3.org/2000/svg"
   xmlns="http://www.w3.org/2000/svg"
   xmlns:sodipodi="http://sodipodi.sourceforge.net/DTD/sodipodi-0.dtd"
   xmlns:inkscape="http://www.inkscape.org/namespaces/inkscape"
   version="1.1"
   id="svg2996"
   width="617"
   height="617"
   viewBox="0 0 617 617"
   sodipodi:docname="fishbed.svg"
   inkscape:version="0.92.4 5da689c313, 2019-01-14">
  <metadata
     id="metadata3002">
    <rdf:RDF>
      <cc:Work
         rdf:about="">
        <dc:format>image/svg+xml</dc:format>
        <dc:type
           rdf:resource="http://purl.org/dc/dcmitype/StillImage" />
        <dc:title></dc:title>
      </cc:Work>
    </rdf:RDF>
  </metadata>
  <defs
     id="defs3000" />
  <sodipodi:namedview
     pagecolor="#ffffff"
     bordercolor="#666666"
     borderopacity="1"
     objecttolerance="10"
     gridtolerance="10"
     guidetolerance="10"
     inkscape:pageopacity="0"
     inkscape:pageshadow="2"
     inkscape:window-width="1920"
     inkscape:window-height="1026"
     id="namedview2998"
     showgrid="false"
     inkscape:zoom="1.0048622"
     inkscape:cx="134.10322"
     inkscape:cy="218.60921"
     inkscape:window-x="0"
     inkscape:window-y="0"
     inkscape:window-maximized="1"
     inkscape:current-layer="svg2996" />
  <path
     style="fill:#969696;fill-opacity:0.92827005;stroke:#969696;stroke-width:1px;stroke-linecap:butt;stroke-linejoin:miter;stroke-opacity:0.89451473"
     d="m 168.46485,420.86198 1.40737,-19.35135 117.1636,-173.10658 10.20343,-150.588664 c 11.91838,-6.85036 23.59596,-5.03216 35.18427,0 l 5.98132,154.107084 108.71938,173.81027 1.40737,17.94398 -115.40439,-0.70369 -1.05552,53.12824 42.9248,63.33168 2.11106,-10.55528 4.57395,-0.35184 -3.16658,47.8506 -52.42456,-32.36953 3.51843,-28.85109 h -42.57296 l 1.75921,30.25846 -54.53561,30.96216 -1.05553,-48.90613 h 4.22211 l 1.40738,14.42555 46.79507,-68.96116 0.70368,-51.36903 z"
     id="path3549"
     inkscape:connector-curvature="0"
     sodipodi:nodetypes="ccccccccccccccccccccccccc" />
  <path
     style="fill:#000000;fill-opacity:1;stroke:#000000;stroke-width:1px;stroke-linecap:butt;stroke-linejoin:miter;stroke-opacity:1"
     d="m 307.09071,73.837816 7.6503,-29.54385 8.83206,30.29022 c -5.56797,-1.72582 -11.07985,-2.32972 -16.48236,-0.74637 z"
     id="path3551"
     inkscape:connector-curvature="0"
     sodipodi:nodetypes="cccc" />
  <path
     style="fill:#646464;fill-opacity:1;stroke:#646464;stroke-width:1px;stroke-linecap:butt;stroke-linejoin:miter;stroke-opacity:1"
     d="M 330.31246,120.38835 327.49772,5.6876456 h -3.16658 L 327.3218,120.21243 Z"
     id="path3553"
     inkscape:connector-curvature="0" />
  <path
     style="fill:#030000;fill-opacity:1;stroke:#000000;stroke-width:1px;stroke-linecap:butt;stroke-linejoin:miter;stroke-opacity:1"
     d="m 300.93315,221.68147 c 7.34546,4.05207 30.25675,1.97122 29.60604,0.99516 l -1.24395,-45.27984 c -8.23131,-3.54411 -17.18346,-5.40625 -29.35726,0.24879 z"
     id="path3555"
     inkscape:connector-curvature="0"
     sodipodi:nodetypes="ccccc" />
  <path
     style="fill:#787878;fill-opacity:1;stroke:#787878;stroke-width:1px;stroke-linecap:butt;stroke-linejoin:miter;stroke-opacity:1"
     d="m 201.36213,354.36372 17.41621,-25.42064 c -1.00234,-27.85226 -3.25866,-52.72632 -8.00442,-71.68794 -7.44485,29.01918 -10.41045,61.52223 -9.41179,97.10858 z"
     id="path3557"
     inkscape:connector-curvature="0"
     sodipodi:nodetypes="cccc" />
  <path
     style="fill:#787878;fill-opacity:1;stroke:#787878;stroke-width:1px;stroke-linecap:butt;stroke-linejoin:miter;stroke-opacity:1"
     d="m 217.63485,421.21382 -4.66191,28.67518 c -3.45231,5.40851 -5.97903,3.78248 -8.2683,0.35184 l -4.74988,-29.37886 z"
     id="path3559"
     inkscape:connector-curvature="0"
     sodipodi:nodetypes="ccccc" />
  <path
     style="fill:#787878;fill-opacity:1;stroke:#787878;stroke-width:1px;stroke-linecap:butt;stroke-linejoin:miter;stroke-opacity:1"
     d="m 224.58375,302.81877 4.66191,-10.99509 0.35185,-18.82358 c 2.16553,-2.30828 4.13569,-1.49072 6.06928,-0.088 v 18.38378 l 3.34251,7.91646 -10.37936,14.86535 0.61572,-11.34692 z"
     id="path3561"
     inkscape:connector-curvature="0"
     sodipodi:nodetypes="ccccccccc" />
  <path
     style="fill:#787878;fill-opacity:1;stroke:#787878;stroke-width:1px;stroke-linecap:butt;stroke-linejoin:miter;stroke-opacity:1"
     d="m 387.83874,306.16127 6.86093,-1.75921 -5.27764,-11.43489 -1.05553,-16.88844 c -1.66924,-1.2122 -3.23196,-2.95696 -5.8054,0.35184 v 20.40687 l -1.75922,2.99067 6.50909,9.32383 z"
     id="path3563"
     inkscape:connector-curvature="0"
     sodipodi:nodetypes="ccccccccc" />
  <path
     style="fill:#787878;fill-opacity:1;stroke:#787878;stroke-width:1px;stroke-linecap:butt;stroke-linejoin:miter;stroke-opacity:1"
     d="m 396.6348,324.63301 c 0.96985,-29.50448 4.43482,-48.09282 9.14791,-61.22062 8.53618,30.55167 8.26591,61.10334 9.67567,91.65501 z"
     id="path3565"
     inkscape:connector-curvature="0"
     sodipodi:nodetypes="cccc" />
  <path
     style="fill:#787878;fill-opacity:1;stroke:#787878;stroke-width:1px;stroke-linecap:butt;stroke-linejoin:miter;stroke-opacity:1"
     d="m 412.55568,423.5008 -3.3425,30.34642 c -3.37534,3.34942 -6.62282,3.24645 -9.76364,0.26389 l -3.16658,-30.78623 z"
     id="path3567"
     inkscape:connector-curvature="0"
     sodipodi:nodetypes="ccccc" />
  <path
     style="fill:#000011;fill-opacity:0.9957808;stroke:#000000;stroke-width:1px;stroke-linecap:butt;stroke-linejoin:miter;stroke-opacity:1"
     d="m 287.03582,515.15581 h 42.57296 l -3.51843,28.85109 -1.52212,4.70945 c -10.02413,6.38588 -20.66318,9.55521 -33.71109,0.12439 l -2.06211,-3.42647 z"
     id="path3569"
     inkscape:connector-curvature="0"
     sodipodi:nodetypes="ccccccc" />
  <path
     style="fill:#646464;fill-opacity:1;stroke:#646464;stroke-width:1px;stroke-linecap:butt;stroke-linejoin:miter;stroke-opacity:1"
     d="m 319.09484,552.82139 -1.24395,58.21693 -5.2246,0.24879 1.99032,-57.96814 z"
     id="path3571"
     inkscape:connector-curvature="0" />
  <path
     style="fill:none;stroke:#000000;stroke-width:1px;stroke-linecap:butt;stroke-linejoin:miter;stroke-opacity:1"
     d="m 287.56358,409.77893 -7.38869,-0.17592 0.70368,-14.42555 -42.04519,0.52777 0.70368,11.25896 -4.22211,2.11106"
     id="path3573"
     inkscape:connector-curvature="0" />
  <path
     style="fill:none;stroke:#000000;stroke-width:1px;stroke-linecap:butt;stroke-linejoin:miter;stroke-opacity:1"
     d="m 332.2476,410.48262 5.98132,0.17592 -0.17592,-13.01818 41.69336,-0.52776 -0.17593,11.43488 3.51843,2.81474"
     id="path3575"
     inkscape:connector-curvature="0" />
  <path
     style="fill:none;stroke:#000000;stroke-width:1px;stroke-linecap:butt;stroke-linejoin:miter;stroke-opacity:1"
     d="m 283.51739,379.52047 0.70369,-24.10123 -14.42555,-0.52776 -3.51843,-2.4629 -32.1936,0.52777"
     id="path3577"
     inkscape:connector-curvature="0" />
  <path
     style="fill:none;stroke:#000000;stroke-width:1px;stroke-linecap:butt;stroke-linejoin:miter;stroke-opacity:1"
     d="m 337.87708,379.52047 c 0,-1.75922 -1.58329,-24.62899 -0.87961,-23.74938 0.70369,0.8796 16.71253,0 16.71253,0 l 2.63882,-2.81474 26.56412,-0.70369"
     id="path3579"
     inkscape:connector-curvature="0" />
  <path
     style="fill:none;stroke:#000000;stroke-width:1px;stroke-linecap:butt;stroke-linejoin:miter;stroke-opacity:1"
     d="M 184.29776,402.56616 285.2766,302.99469"
     id="path3581"
     inkscape:connector-curvature="0" />
  <path
     style="fill:none;stroke:#000000;stroke-width:1px;stroke-linecap:butt;stroke-linejoin:miter;stroke-opacity:1"
     d="m 336.99747,304.05022 c 0.35185,1.40737 95.7012,101.33068 95.7012,101.33068"
     id="path3583"
     inkscape:connector-curvature="0" />
  <path
     style="fill:none;stroke:#000000;stroke-width:1px;stroke-linecap:butt;stroke-linejoin:miter;stroke-opacity:1"
     d="M 178.03073,395.33711 286.7521,237.35526"
     id="path3585"
     inkscape:connector-curvature="0" />
  <path
     style="fill:none;stroke:#000000;stroke-width:1px;stroke-linecap:butt;stroke-linejoin:miter;stroke-opacity:1"
     d="M 338.99806,241.08711 439.01177,398.82018"
     id="path3587"
     inkscape:connector-curvature="0" />
  <path
     style="fill:none;stroke:#000000;stroke-width:1px;stroke-linecap:butt;stroke-linejoin:miter;stroke-opacity:1"
     d="m 318.34981,451.47229 c 0,-1.40737 11.25897,-160.44025 11.25897,-160.44025"
     id="path3589"
     inkscape:connector-curvature="0" />
  <path
     style="fill:none;stroke:#000000;stroke-width:1px;stroke-linecap:butt;stroke-linejoin:miter;stroke-opacity:1"
     d="M 304.62795,453.58334 298.64663,296.30968"
     id="path3591"
     inkscape:connector-curvature="0" />
  <path
     style="fill:none;stroke:#000000;stroke-width:1px;stroke-linecap:butt;stroke-linejoin:miter;stroke-opacity:1"
     d="M 333.1272,422.97303 333.83089,230.5151"
     id="path3593"
     inkscape:connector-curvature="0" />
  <path
     style="fill:none;stroke:#000000;stroke-width:1px;stroke-linecap:butt;stroke-linejoin:miter;stroke-opacity:1"
     d="m 286.33213,421.56566 6.68501,-192.45793"
     id="path3595"
     inkscape:connector-curvature="0" />
</svg>
