<?xml version="1.0" encoding="UTF-8" standalone="no"?>
<!-- Created with Inkscape (http://www.inkscape.org/) -->

<svg
   xmlns:dc="http://purl.org/dc/elements/1.1/"
   xmlns:cc="http://creativecommons.org/ns#"
   xmlns:rdf="http://www.w3.org/1999/02/22-rdf-syntax-ns#"
   xmlns:svg="http://www.w3.org/2000/svg"
   xmlns="http://www.w3.org/2000/svg"
   xmlns:sodipodi="http://sodipodi.sourceforge.net/DTD/sodipodi-0.dtd"
   xmlns:inkscape="http://www.inkscape.org/namespaces/inkscape"
   version="1.1"
   id="svg2324"
   width="850"
   height="850"
   viewBox="0 0 850 850"
   sodipodi:docname="jasgripen.svg"
   inkscape:version="0.92.4 5da689c313, 2019-01-14">
  <metadata
     id="metadata2330">
    <rdf:RDF>
      <cc:Work
         rdf:about="">
        <dc:format>image/svg+xml</dc:format>
        <dc:type
           rdf:resource="http://purl.org/dc/dcmitype/StillImage" />
        <dc:title></dc:title>
      </cc:Work>
    </rdf:RDF>
  </metadata>
  <defs
     id="defs2328" />
  <sodipodi:namedview
     pagecolor="#ffffff"
     bordercolor="#666666"
     borderopacity="1"
     objecttolerance="10"
     gridtolerance="10"
     guidetolerance="10"
     inkscape:pageopacity="0"
     inkscape:pageshadow="2"
     inkscape:window-width="1920"
     inkscape:window-height="1026"
     id="namedview2326"
     showgrid="false"
     inkscape:zoom="0.70710678"
     inkscape:cx="457.4731"
     inkscape:cy="311.19328"
     inkscape:window-x="0"
     inkscape:window-y="0"
     inkscape:window-maximized="1"
     inkscape:current-layer="svg2324" />
  <path
     style="fill:#96999e;fill-opacity:1;stroke:#96999e;stroke-width:0.99999994px;stroke-linecap:butt;stroke-linejoin:miter;stroke-opacity:1"
     d="m 198.86631,622.6056 53.41326,-77.89605 14.88567,-2.1881 101.57277,-141.78832 -19.70162,0.87523 -54.7267,31.94615 v -26.69472 l 78.80646,-126.90931 0.87562,-8.75236 24.95537,0.43761 0.43782,-135.66167 24.07975,-94.963152 23.20413,95.400782 4.81594,135.66167 21.89069,-1.31287 0.87563,13.12856 80.11988,124.28359 -0.87562,27.56995 -61.2939,-36.32231 -11.82097,0.43761 99.8215,142.66356 13.57221,0.87523 53.8511,76.14559 6.5672,-16.62949 0.43781,-61.70419 6.5672,1.31286 10.94535,17.94235 -0.87563,81.39699 6.5672,8.75237 -1.75125,49.88849 -4.37814,4.37618 -0.43781,23.19378 -8.75627,2.18808 -0.43781,7.00189 -8.31846,-2.18808 1.31343,-42.44897 -163.74231,8.75236 -19.70161,11.81569 -31.52259,132.16071 -33.71163,-0.43761 -32.39821,-133.47357 -17.07473,-10.06522 -165.49356,-8.31476 2.62688,42.01137 -10.50752,-0.87525 -11.38315,-16.19187 v -74.39511 l 4.37813,-3.50095 0.43782,-85.33555 14.44784,-13.56618 z"
     id="path2877"
     inkscape:connector-curvature="0" />
  <path
     style="fill:none;stroke:#959499;stroke-width:0.99999994px;stroke-linecap:butt;stroke-linejoin:miter;stroke-opacity:1"
     d="M 423.46471,41.010908 V 4.1415563"
     id="path2881"
     inkscape:connector-curvature="0" />
  <path
     style="fill:#000000;fill-opacity:1;stroke:#000000;stroke-width:0.99999994px;stroke-linecap:butt;stroke-linejoin:miter;stroke-opacity:1"
     d="m 404.69059,320.26365 c 10.52728,-2.98376 25.81069,-3.07309 39.31678,0.30943 l 3.09582,-87.26286 c -13.7778,-9.07878 -27.86137,-15.78876 -44.88926,0.30943 z"
     id="path2885"
     inkscape:connector-curvature="0"
     sodipodi:nodetypes="ccccc" />
  <path
     style="fill:#000000;fill-opacity:1;stroke:#000000;stroke-width:0.99999994px;stroke-linecap:butt;stroke-linejoin:miter;stroke-opacity:1"
     d="m 401.59478,225.26471 c 16.78814,-9.35992 30.66407,-7.07622 43.34134,0 -1.5003,-24.03555 -1.93429,-48.74936 -21.0515,-61.57914 -16.98536,12.4079 -21.72077,35.22362 -22.28984,61.57914 z"
     id="path2887"
     inkscape:connector-curvature="0"
     sodipodi:nodetypes="cccc" />
  <path
     style="fill:#000000;fill-opacity:1;stroke:#000000;stroke-width:0.99999994px;stroke-linecap:butt;stroke-linejoin:miter;stroke-opacity:1"
     d="m 397.8798,808.7192 50.92609,0.46415 -8.70428,36.16994 -33.71163,-0.43761 z"
     id="path2889"
     inkscape:connector-curvature="0" />
  <path
     style="fill:#959499;fill-opacity:1;stroke:#959499;stroke-width:0.99999994px;stroke-linecap:butt;stroke-linejoin:miter;stroke-opacity:1"
     d="m 399.38496,135.97406 47.28388,0.43763 -23.20413,-95.400782 z"
     id="path2891"
     inkscape:connector-curvature="0" />
  <path
     style="fill:none;stroke:#646464;stroke-width:0.99999994px;stroke-linecap:butt;stroke-linejoin:miter;stroke-opacity:1"
     d="m 472.42462,660.3912 100.51927,3.81548 1.9086,33.06753 2.54478,-29.25204 80.16096,5.08731"
     id="path2893"
     inkscape:connector-curvature="0" />
  <path
     style="fill:none;stroke:#646464;stroke-width:0.99999994px;stroke-linecap:butt;stroke-linejoin:miter;stroke-opacity:1"
     d="m 376.35872,659.11936 c 0,0 -98.61069,1.90775 -99.24688,4.45141 -0.6362,2.54365 -1.27241,33.06752 -1.27241,33.06752 l -4.45337,-28.61612 -78.88855,5.08731"
     id="path2895"
     inkscape:connector-curvature="0" />
  <path
     style="fill:none;stroke:#646464;stroke-width:0.99999994px;stroke-linecap:butt;stroke-linejoin:miter;stroke-opacity:1"
     d="M 201.40428,631.13914 309.55793,519.85418 307.01314,484.24299"
     id="path2899"
     inkscape:connector-curvature="0" />
  <path
     style="fill:none;stroke:#646464;stroke-width:0.99999994px;stroke-linecap:butt;stroke-linejoin:miter;stroke-opacity:1"
     d="M 646.74285,630.50323 538.58919,516.0387 l 4.4534,-29.25205"
     id="path2901"
     inkscape:connector-curvature="0" />
  <path
     style="fill:none;stroke:#646464;stroke-width:0.99999994px;stroke-linecap:butt;stroke-linejoin:miter;stroke-opacity:1"
     d="m 479.42279,424.46707 -7.63437,160.88627"
     id="path2905"
     inkscape:connector-curvature="0" />
  <path
     style="fill:none;stroke:#646464;stroke-width:1.99999988;stroke-linecap:butt;stroke-linejoin:miter;stroke-miterlimit:4;stroke-dasharray:none;stroke-opacity:1"
     d="m 422.16497,788.84583 0.63621,-166.60948"
     id="path2907"
     inkscape:connector-curvature="0" />
  <path
     style="fill:none;stroke:#646464;stroke-width:0.99999994px;stroke-linecap:butt;stroke-linejoin:miter;stroke-opacity:1"
     d="m 414.21251,390.60466 8.58867,231.63169"
     id="path2909"
     inkscape:connector-curvature="0"
     sodipodi:nodetypes="cc" />
  <path
     style="fill:none;stroke:#646464;stroke-width:0.99999994px;stroke-linecap:butt;stroke-linejoin:miter;stroke-opacity:1"
     d="m 429.79934,390.76363 -6.99816,231.47272"
     id="path2911"
     inkscape:connector-curvature="0" />
  <path
     style="fill:none;stroke:#646464;stroke-width:0.99999994px;stroke-linecap:butt;stroke-linejoin:miter;stroke-opacity:1"
     d="m 404.69059,320.26365 9.52192,70.34101 c 0,0 -40.26232,-2.36995 -42.51162,-3.71893 l -2.69916,-73.29444"
     id="path2913"
     inkscape:connector-curvature="0" />
  <path
     style="fill:none;stroke:#646464;stroke-width:0.99999994px;stroke-linecap:butt;stroke-linejoin:miter;stroke-opacity:1"
     d="m 444.00737,320.57308 -14.20803,70.19055 47.16876,-3.8779 2.2493,-73.29444"
     id="path2915"
     inkscape:connector-curvature="0" />
  <path
     style="fill:none;stroke:#646464;stroke-width:0.99999994px;stroke-linecap:butt;stroke-linejoin:miter;stroke-opacity:1"
     d="m 405.77778,323.82103 c 14.5844,3.63736 26.22568,1.92598 37.5633,-0.33724"
     id="path2917"
     inkscape:connector-curvature="0"
     sodipodi:nodetypes="cc" />
  <path
     style="fill:#0000c2;fill-opacity:1;stroke:#0000c2;stroke-width:0.99999994px;stroke-linecap:butt;stroke-linejoin:miter;stroke-opacity:1"
     d="m 272.05692,563.37694 v 79.14002 h 120.56246 v -79.36485 z"
     id="path2919"
     inkscape:connector-curvature="0"
     sodipodi:nodetypes="ccccc" />
  <path
     style="fill:#b4c028;fill-opacity:1;stroke:#b4c028;stroke-width:0.99999994px;stroke-linecap:butt;stroke-linejoin:miter;stroke-opacity:1"
     d="m 272.04287,586.42197 h 39.3768 v -23.15744 l 27.53283,-0.0351 -0.0915,23.41741 53.75318,-0.0281 0.007,28.30463 h -54.27543 l -0.0421,27.6 -28.34334,0.028 -0.0844,-27.46912 -37.83389,0.15901 z"
     id="path2921"
     inkscape:connector-curvature="0"
     sodipodi:nodetypes="ccccccccccccc" />
  <path
     style="fill:none;stroke:#646464;stroke-width:0.99999994px;stroke-linecap:butt;stroke-linejoin:miter;stroke-opacity:1"
     d="m 368.08814,424.46707 9.54298,162.15809"
     id="path2903"
     inkscape:connector-curvature="0" />
</svg>
